<svg version="1.1" xmlns="http://www.w3.org/2000/svg" xmlns:xlink="http://www.w3.org/1999/xlink" width="18" height="18" viewBox="0,0,256,256"><defs><clipPath id="clip-1"><rect x="0" y="0" width="17.5" height="17.5" id="clip0_2831_1591" fill="none"></rect></clipPath></defs><g fill="none" fill-rule="nonzero" stroke="none" stroke-width="1" stroke-linecap="butt" stroke-linejoin="miter" stroke-miterlimit="10" stroke-dasharray="" stroke-dashoffset="0" font-family="none" font-weight="none" font-size="none" text-anchor="none" style="mix-blend-mode: normal"><g transform="translate(3.55556,3.55556) scale(14.22222,14.22222)"><g clip-path="url(#clip-1)" opacity="0.3"><path d="M15.937,15.6252c0.3934,0 0.7343,-0.1299 1.024,-0.3863l-4.958,-4.9583c-0.1189,0.0852 -0.2342,0.168 -0.3432,0.2468c-0.371,0.2734 -0.6721,0.4867 -0.9034,0.6396c-0.2312,0.1532 -0.5388,0.3093 -0.9228,0.4687c-0.38425,0.1597 -0.74223,0.2392 -1.07432,0.2392h-0.00972h-0.00972c-0.33211,0 -0.69009,-0.0795 -1.07432,-0.2392c-0.38422,-0.1594 -0.69184,-0.3155 -0.92282,-0.4687c-0.23121,-0.1529 -0.53219,-0.3662 -0.90341,-0.6396c-0.10345,-0.0758 -0.21818,-0.159 -0.34222,-0.2481l-4.95898,4.9596c0.28973,0.2564 0.6308,0.3863 1.02414,0.3863z" fill="#664ef9"></path><path d="M0.98643,7.15831c-0.371,-0.24735 -0.70001,-0.53063 -0.98643,-0.84972v7.54351l4.36999,-4.36997c-0.87425,-0.61034 -2.00067,-1.38406 -3.38356,-2.32382z" fill="#664ef9"></path><path d="M16.524,7.15831c-1.3301,0.9003 -2.4607,1.67535 -3.3917,2.32557l4.3682,4.36842v-7.54371c-0.28,0.31267 -0.6055,0.59577 -0.9765,0.84972z" fill="#664ef9"></path><path d="M15.9377,1.875h-14.37481c-0.50149,0 -0.88705,0.16935 -1.15715,0.50769c-0.27032,0.3385 -0.40525,0.76183 -0.40525,1.26952c0,0.41009 0.17907,0.85442 0.53705,1.33314c0.35798,0.47852 0.7389,0.85438 1.14256,1.12778c0.22129,0.15635 0.88864,0.62029 2.00203,1.39166c0.60104,0.4165 1.12372,0.77953 1.57289,1.09281c0.38285,0.26676 0.71303,0.49777 0.98564,0.68949c0.03129,0.02195 0.08051,0.05715 0.14583,0.10386c0.07038,0.05055 0.15943,0.1147 0.2693,0.19403c0.21157,0.15302 0.38734,0.27671 0.52733,0.3712c0.13979,0.09452 0.30917,0.20012 0.50788,0.31732c0.19854,0.1171 0.38581,0.2051 0.56157,0.2637c0.1758,0.0585 0.33853,0.0879 0.48824,0.0879h0.00973h0.00972c0.14968,0 0.31245,-0.0294 0.48828,-0.0879c0.17573,-0.0586 0.36283,-0.1464 0.56154,-0.2637c0.19852,-0.1172 0.36762,-0.223 0.50792,-0.31732c0.14,-0.09449 0.3157,-0.21815 0.5273,-0.3712c0.1097,-0.07933 0.1987,-0.14351 0.2691,-0.19387c0.0654,-0.0469 0.1146,-0.08188 0.146,-0.10402c0.2124,-0.14778 0.5434,-0.37784 0.9883,-0.68679c0.8096,-0.56253 2.002,-1.39048 3.5821,-2.48717c0.4752,-0.33192 0.8722,-0.73247 1.1913,-1.20108c0.3185,-0.46861 0.4782,-0.96016 0.4782,-1.47449c0,-0.42972 -0.1548,-0.79742 -0.4638,-1.10367c-0.3093,-0.30587 -0.6756,-0.45889 -1.0988,-0.45889z" fill="#664ef9"></path></g></g></g></svg>