<svg version="1.1" xmlns="http://www.w3.org/2000/svg" xmlns:xlink="http://www.w3.org/1999/xlink" width="20" height="21" viewBox="0,0,243.79688,256"><defs><clipPath id="clip-1"><rect x="0" y="0.5" width="20" height="20" id="clip0_2831_1601" fill="none"></rect></clipPath></defs><g fill="none" fill-rule="nonzero" stroke="none" stroke-width="1" stroke-linecap="butt" stroke-linejoin="miter" stroke-miterlimit="10" stroke-dasharray="" stroke-dashoffset="0" font-family="none" font-weight="none" font-size="none" text-anchor="none" style="mix-blend-mode: normal"><g transform="translate(-0.00632,0) scale(12.19048,12.19048)"><g clip-path="url(#clip-1)" opacity="0.3"><path d="M15.625,8h-0.625v-2.5c0,-2.7575 -2.2425,-5 -5,-5c-2.7575,0 -5,2.2425 -5,5v2.5h-0.625c-1.03333,0 -1.875,0.84083 -1.875,1.875v8.75c0,1.0342 0.84167,1.875 1.875,1.875h11.25c1.0333,0 1.875,-0.8408 1.875,-1.875v-8.75c0,-1.03417 -0.8417,-1.875 -1.875,-1.875zM6.66667,5.5c0,-1.83833 1.495,-3.33333 3.33333,-3.33333c1.8383,0 3.3333,1.495 3.3333,3.33333v2.5h-6.66663zM10.8333,14.435v1.8983c0,0.46 -0.3725,0.8334 -0.8333,0.8334c-0.46083,0 -0.83333,-0.3734 -0.83333,-0.8334v-1.8983c-0.49584,-0.2892 -0.83334,-0.8208 -0.83334,-1.435c0,-0.9192 0.7475,-1.6667 1.66667,-1.6667c0.9192,0 1.6667,0.7475 1.6667,1.6667c0,0.6142 -0.3375,1.1458 -0.8334,1.435z" fill="#664ef9"></path></g></g></g></svg>