<svg version="1.1" xmlns="http://www.w3.org/2000/svg" xmlns:xlink="http://www.w3.org/1999/xlink" width="20" height="20" viewBox="0,0,256,256"><defs><clipPath id="clip-1"><rect x="0" y="0" width="20" height="20" id="clip0_2831_1581" fill="none"></rect></clipPath></defs><g fill="none" fill-rule="nonzero" stroke="none" stroke-width="1" stroke-linecap="butt" stroke-linejoin="miter" stroke-miterlimit="10" stroke-dasharray="" stroke-dashoffset="0" font-family="none" font-weight="none" font-size="none" text-anchor="none" style="mix-blend-mode: normal"><g transform="scale(12.8,12.8)"><g clip-path="url(#clip-1)" opacity="0.3"><path d="M10.0013,0c-2.85712,0 -5.19271,2.33559 -5.19271,5.19275c0,2.85716 2.33559,5.19275 5.19271,5.19275c2.8572,0 5.1928,-2.33559 5.1928,-5.19275c0,-2.85716 -2.3356,-5.19275 -5.1928,-5.19275z" fill="#664ef9"></path><path d="M18.913,14.536c-0.1361,-0.3401 -0.3175,-0.6576 -0.5215,-0.9524c-1.0431,-1.542 -2.6531,-2.5624 -4.4671,-2.8118c-0.2268,-0.0226 -0.4762,0.0227 -0.6576,0.1587c-0.9524,0.703 -2.0862,1.0658 -3.2654,1.0658c-1.17912,0 -2.31289,-0.3628 -3.26528,-1.0658c-0.18142,-0.136 -0.43086,-0.204 -0.65759,-0.1587c-1.81407,0.2494 -3.4467,1.2698 -4.4671,2.8118c-0.20408,0.2948 -0.38551,0.635 -0.52153,0.9524c-0.06801,0.1361 -0.04536,0.2948 0.02266,0.4309c0.18142,0.3174 0.40815,0.6349 0.61223,0.907c0.31745,0.4309 0.6576,0.8163 1.0431,1.1791c0.31745,0.3175 0.68026,0.6123 1.0431,0.9071c1.79137,1.3378 3.94558,2.0408 6.1678,2.0408c2.22221,0 4.37641,-0.703 6.16781,-2.0408c0.3628,-0.2721 0.7256,-0.5896 1.0431,-0.9071c0.3628,-0.3628 0.7256,-0.7483 1.0431,-1.1791c0.2267,-0.2948 0.4308,-0.5896 0.6122,-0.907c0.1133,-0.1361 0.136,-0.2949 0.068,-0.4309z" fill="#664ef9"></path></g></g></g></svg>